{
  "accessors": [
    {
      "bufferView": 2,
      "componentType": 5126,
      "count": 76,
      "max": [
        2.173461675643921,
        0.1134527325630188,
        0.5141017436981201
      ],
      "min": [
        -2.173461675643921,
        -0.10040748119354248,
        -0.5141017436981201
      ],
      "type": "VEC3"
    },
    {
      "bufferView": 2,
      "byteOffset": 912,
      "componentType": 5126,
      "count": 76,
      "max": [
        1.0,
        1.0,
        1.0
      ],
      "min": [
        -1.0,
        -1.0,
        -1.0
      ],
      "type": "VEC3"
    },
    {
      "bufferView": 1,
      "componentType": 5126,
      "count": 76,
      "max": [
        0.875,
        1.0
      ],
      "min": [
        0.125,
        0.0
      ],
      "type": "VEC2"
    },
    {
      "bufferView": 0,
      "componentType": 5125,
      "count": 114,
      "type": "SCALAR"
    },
    {
      "bufferView": 2,
      "byteOffset": 1824,
      "componentType": 5126,
      "count": 2485,
      "max": [
        2.1608870029449463,
        0.10929258167743683,
        0.4989458918571472
      ],
      "min": [
        -2.1581389904022217,
        -0.09700321406126022,
        -0.5107048749923706
      ],
      "type": "VEC3"
    },
    {
      "bufferView": 2,
      "byteOffset": 31644,
      "componentType": 5126,
      "count": 2485,
      "max": [
        1.0,
        1.0,
        1.0
      ],
      "min": [
        -1.0,
        -1.0,
        -1.0
      ],
      "type": "VEC3"
    },
    {
      "bufferView": 1,
      "byteOffset": 608,
      "componentType": 5126,
      "count": 2485,
      "max": [
        1.0,
        1.0
      ],
      "min": [
        0.0,
        0.0
      ],
      "type": "VEC2"
    },
    {
      "bufferView": 0,
      "byteOffset": 456,
      "componentType": 5125,
      "count": 7170,
      "type": "SCALAR"
    },
    {
      "bufferView": 2,
      "byteOffset": 61464,
      "componentType": 5126,
      "count": 286,
      "max": [
        2.162564277648926,
        0.06743288040161133,
        0.2926786541938782
      ],
      "min": [
        -2.144914388656616,
        -0.01579836755990982,
        -0.3028343915939331
      ],
      "type": "VEC3"
    },
    {
      "bufferView": 2,
      "byteOffset": 64896,
      "componentType": 5126,
      "count": 286,
      "max": [
        1.0,
        1.0,
        0.9999960660934448
      ],
      "min": [
        -1.0,
        -1.0,
        -0.9999960064888
      ],
      "type": "VEC3"
    },
    {
      "bufferView": 1,
      "byteOffset": 20488,
      "componentType": 5126,
      "count": 286,
      "max": [
        1.0,
        0.9900000095367432
      ],
      "min": [
        -1.564621925354004e-07,
        0.0
      ],
      "type": "VEC2"
    },
    {
      "bufferView": 0,
      "byteOffset": 29136,
      "componentType": 5125,
      "count": 936,
      "type": "SCALAR"
    }
  ],
  "asset": {
    "extras": {
      "author": "Headcrap (https://sketchfab.com/Headcraps)",
      "license": "CC-BY-4.0 (http://creativecommons.org/licenses/by/4.0/)",
      "source": "https://sketchfab.com/3d-models/long-office-ceiling-light-2b6d420e03764c75af48863bd762c2c9",
      "title": "long office ceiling light"
    },
    "generator": "Sketchfab-15.37.0",
    "version": "2.0"
  },
  "bufferViews": [
    {
      "buffer": 0,
      "byteLength": 32880,
      "name": "floatBufferViews",
      "target": 34963
    },
    {
      "buffer": 0,
      "byteLength": 22776,
      "byteOffset": 32880,
      "byteStride": 8,
      "name": "floatBufferViews",
      "target": 34962
    },
    {
      "buffer": 0,
      "byteLength": 68328,
      "byteOffset": 55656,
      "byteStride": 12,
      "name": "floatBufferViews",
      "target": 34962
    }
  ],
  "buffers": [
    {
      "byteLength": 123984,
      "uri": "scene.bin"
    }
  ],
  "extensionsUsed": [
    "KHR_materials_specular"
  ],
  "materials": [
    {
      "doubleSided": true,
      "name": "outer",
      "pbrMetallicRoughness": {
        "metallicFactor": 0.472441,
        "roughnessFactor": 0.405512
      }
    },
    {
      "doubleSided": true,
      "emissiveFactor": [
        0.0013464206392509695,
        0.0013464206392509695,
        0.0013464206392509695
      ],
      "extensions": {
        "KHR_materials_specular": {
          "specularColorFactor": [
            1.0,
            1.0,
            1.0
          ],
          "specularFactor": 0.5104777462178932
        }
      },
      "name": "metal",
      "pbrMetallicRoughness": {
        "baseColorFactor": [
          0.410937,
          0.379702,
          0.322304,
          1.0
        ],
        "metallicFactor": 0.8761931464933987,
        "roughnessFactor": 0.0
      }
    },
    {
      "doubleSided": true,
      "emissiveFactor": [
        1.0,
        1.0,
        1.0
      ],
      "name": "bulb",
      "pbrMetallicRoughness": {
        "baseColorFactor": [
          1.0,
          0.952714,
          0.894105,
          1.0
        ],
        "metallicFactor": 0.0,
        "roughnessFactor": 0.0787401
      }
    }
  ],
  "meshes": [
    {
      "name": "Object_0",
      "primitives": [
        {
          "attributes": {
            "NORMAL": 1,
            "POSITION": 0,
            "TEXCOORD_0": 2
          },
          "indices": 3,
          "material": 0,
          "mode": 4
        }
      ]
    },
    {
      "name": "Object_1",
      "primitives": [
        {
          "attributes": {
            "NORMAL": 5,
            "POSITION": 4,
            "TEXCOORD_0": 6
          },
          "indices": 7,
          "material": 1,
          "mode": 4
        }
      ]
    },
    {
      "name": "Object_2",
      "primitives": [
        {
          "attributes": {
            "NORMAL": 9,
            "POSITION": 8,
            "TEXCOORD_0": 10
          },
          "indices": 11,
          "material": 2,
          "mode": 4
        }
      ]
    }
  ],
  "nodes": [
    {
      "children": [
        1
      ],
      "matrix": [
        -1.0,
        2.832769343193999e-16,
        6.290011496532519e-32,
        0.0,
        0.0,
        2.220446049250313e-16,
        -1.0,
        0.0,
        -2.832769343193999e-16,
        -1.0,
        -2.220446049250313e-16,
        0.0,
        0.0,
        0.0,
        0.0,
        1.0
      ],
      "name": "Sketchfab_model"
    },
    {
      "children": [
        2
      ],
      "name": "root"
    },
    {
      "children": [
        3
      ],
      "matrix": [
        1.0,
        0.0,
        0.0,
        0.0,
        0.0,
        2.220446049250313e-16,
        1.0,
        0.0,
        0.0,
        -1.0,
        2.220446049250313e-16,
        0.0,
        0.0,
        0.0,
        0.0,
        1.0
      ],
      "name": "GLTF_SceneRootNode"
    },
    {
      "children": [
        4,
        5,
        6
      ],
      "matrix": [
        1.0,
        0.0,
        0.0,
        0.0,
        0.0,
        1.0,
        0.0,
        0.0,
        0.0,
        0.0,
        1.0,
        0.0,
        0.0,
        0.24679715931415558,
        0.021426912397146225,
        1.0
      ],
      "name": "Cube_0"
    },
    {
      "mesh": 0,
      "name": "Object_4"
    },
    {
      "mesh": 1,
      "name": "Object_5"
    },
    {
      "mesh": 2,
      "name": "Object_6"
    }
  ],
  "scene": 0,
  "scenes": [
    {
      "name": "Sketchfab_Scene",
      "nodes": [
        0
      ]
    }
  ]
}
